<svg width="221" height="41" viewBox="0 0 221 41" fill="none" xmlns="http://www.w3.org/2000/svg">
<path d="M8.62071 14.5448C8.62071 12.9733 9.245 11.4661 10.3562 10.3549C11.4675 9.24365 12.9746 8.61936 14.5462 8.61936H26.3971C27.9687 8.61936 29.4758 9.24365 30.5871 10.3549C31.6983 11.4661 32.3226 12.9733 32.3226 14.5448V26.3958C32.3226 27.9673 31.6983 29.4745 30.5871 30.5857C29.4758 31.697 27.9687 32.3213 26.3971 32.3213H14.5462C12.9746 32.3213 11.4675 31.697 10.3562 30.5857C9.245 29.4745 8.62071 27.9673 8.62071 26.3958V14.5448Z" stroke="#E4C590" stroke-width="2.14563" stroke-linecap="round" stroke-linejoin="round"/>
<path d="M27.1371 13.8043V13.8191M16.0269 20.4705C16.0269 21.6491 16.4951 22.7795 17.3285 23.6129C18.162 24.4464 19.2923 24.9146 20.471 24.9146C21.6496 24.9146 22.78 24.4464 23.6134 23.6129C24.4469 22.7795 24.9151 21.6491 24.9151 20.4705C24.9151 19.2918 24.4469 18.1614 23.6134 17.328C22.78 16.4946 21.6496 16.0264 20.471 16.0264C19.2923 16.0264 18.162 16.4946 17.3285 17.328C16.4951 18.1614 16.0269 19.2918 16.0269 20.4705Z" stroke="#E4C590" stroke-width="2.14563" stroke-linecap="round" stroke-linejoin="round"/>
<g clip-path="url(#clip0_1_562)">
<path d="M73.4597 21.9268C73.4597 22.6767 72.8708 23.2834 72.1552 23.2834C71.4262 23.2834 70.8364 22.6776 70.8364 21.9268C70.8364 21.1908 71.4253 20.5851 72.1552 20.5851C72.8708 20.5851 73.4597 21.1908 73.4597 21.9268ZM89.6479 21.913C89.6479 22.6628 89.059 23.2695 88.3291 23.2695C87.5992 23.2695 87.0102 22.6638 87.0102 21.913C87.0102 21.1622 87.5992 20.5712 88.3291 20.5712C89.059 20.5712 89.6479 21.1631 89.6479 21.913ZM75.0587 21.9268C75.0587 20.3976 73.8386 19.1417 72.3509 19.1417C70.8498 19.1417 69.6432 20.3967 69.6432 21.9268C69.6432 23.4708 70.8498 24.712 72.3509 24.712C73.8377 24.712 75.0587 23.4708 75.0587 21.9268ZM91.2335 21.913C91.2335 20.3838 90.0268 19.1279 88.5257 19.1279C87.0389 19.1279 85.8179 20.3828 85.8179 21.913C85.8179 23.457 87.038 24.6981 88.5257 24.6981C90.0268 24.6981 91.2335 23.457 91.2335 21.913ZM76.251 21.9268C76.251 24.1487 74.5119 25.9522 72.3509 25.9522C70.1899 25.9522 68.4374 24.1487 68.4374 21.9268C68.4374 19.7189 70.1908 17.9154 72.3509 17.9154C74.511 17.9154 76.251 19.7189 76.251 21.9268ZM92.4401 21.913C92.4401 24.1348 90.6867 25.9245 88.5266 25.9245C86.38 25.9245 84.6266 24.1357 84.6266 21.913C84.6266 19.6902 86.38 17.9015 88.5266 17.9015C90.6867 17.9015 92.4401 19.6902 92.4401 21.913ZM78.9165 21.9555C78.9165 18.2764 76.0131 15.2891 72.4353 15.2891C68.872 15.2891 65.9685 18.2755 65.9685 21.9555C65.9685 25.6354 68.872 28.6219 72.4353 28.6219C76.0122 28.6219 78.9165 25.6354 78.9165 21.9555ZM88.2878 13.6878C85.9732 12.6489 83.3642 12.0865 80.4886 12.0865C77.6129 12.0865 74.7508 12.6489 72.4506 13.674C76.8974 13.6887 80.4886 17.3825 80.4886 21.9564C80.4886 17.4693 83.9532 13.8171 88.2878 13.6878ZM95.0069 21.9555C95.0069 18.2764 92.1169 15.2891 88.5401 15.2891C84.9632 15.2891 82.0588 18.2755 82.0588 21.9555C82.0588 25.6354 84.9623 28.6219 88.5401 28.6219C92.1178 28.6219 95.0069 25.6354 95.0069 21.9555ZM91.2757 13.7894H96.6481C95.8059 14.7996 95.1892 16.1553 95.0347 17.0935C96.0026 18.4639 96.5781 20.1381 96.5781 21.9564C96.5781 26.5302 92.9725 30.224 88.5401 30.224C86.0154 30.224 83.7701 29.0411 82.2977 27.1794C82.2977 27.1794 81.6387 27.9874 80.4877 29.7623C80.2911 29.344 79.2954 27.8868 78.6921 27.1656C77.2188 29.0411 74.9608 30.225 72.4353 30.225C68.0029 30.225 64.3973 26.5312 64.3973 21.9573C64.3973 20.139 64.9728 18.4657 65.9407 17.0944C65.7862 16.1562 65.1694 14.8006 64.3273 13.7903H69.4475C72.1974 11.9 76.1953 10.7171 80.4877 10.7171C84.7801 10.7171 88.5257 11.9 91.2757 13.7903V13.7894Z" fill="#E4C590"/>
</g>
<path d="M140.406 18.7515H151.738C151.847 19.3608 151.925 19.955 151.925 20.7523C151.925 27.5991 147.33 32.4761 140.405 32.4761C133.761 32.4761 128.4 27.1149 128.4 20.4712C128.4 13.8275 133.761 8.46637 140.405 8.46637C143.64 8.46637 146.36 9.65485 148.455 11.6086L145.188 14.7509C144.296 13.8916 142.734 12.8912 140.405 12.8912C136.309 12.8912 132.964 16.2835 132.964 20.4722C132.964 24.6609 136.309 28.0533 140.405 28.0533C145.157 28.0533 146.938 24.6459 147.221 22.8792H140.405V18.7525L140.406 18.7515Z" fill="#E4C590"/>
<path d="M214.149 20.4701C214.149 12.9749 208.076 6.90215 200.581 6.90215C193.086 6.90215 187.013 12.9749 187.013 20.4701C187.013 27.2421 191.975 32.8553 198.461 33.874V24.3923H195.015V20.4701H198.461V17.4808C198.461 14.0806 200.486 12.2024 203.586 12.2024C205.071 12.2024 206.623 12.4672 206.623 12.4672V15.8045H204.912C203.227 15.8045 202.701 16.8506 202.701 17.9234V20.4701H206.464L205.862 24.3923H202.701V33.874C209.188 32.8553 214.149 27.2421 214.149 20.4701Z" fill="#E4C590"/>
<defs>
<clipPath id="clip0_1_562">
<rect width="32.1845" height="25.7476" fill="white" transform="translate(64.3283 7.54157) scale(1.00424)"/>
</clipPath>
</defs>
</svg>
