<svg width="46" height="46" viewBox="0 0 46 46" fill="none" xmlns="http://www.w3.org/2000/svg">
<path d="M29.215 8.25586H15.6055C13.5007 8.25811 11.4827 9.09525 9.99435 10.5836C8.50601 12.0719 7.66888 14.0899 7.66663 16.1947V29.8042C7.66888 31.909 8.50601 33.927 9.99435 35.4153C11.4827 36.9037 13.5007 37.7408 15.6055 37.743H29.215C31.3198 37.7408 33.3377 36.9037 34.8261 35.4153C36.3144 33.927 37.1516 31.909 37.1538 29.8042V16.1947C37.1516 14.0899 36.3144 12.0719 34.8261 10.5836C33.3377 9.09525 31.3198 8.25811 29.215 8.25586ZM22.4102 29.8042C21.0644 29.8042 19.7487 29.4051 18.6297 28.6574C17.5107 27.9097 16.6385 26.8469 16.1235 25.6035C15.6084 24.3601 15.4737 22.9919 15.7362 21.6719C15.9988 20.3519 16.6469 19.1394 17.5985 18.1878C18.5502 17.2361 19.7627 16.588 21.0827 16.3255C22.4027 16.0629 23.7709 16.1977 25.0143 16.7127C26.2577 17.2277 27.3204 18.0999 28.0681 19.2189C28.8159 20.338 29.215 21.6536 29.215 22.9994C29.2131 24.8036 28.4955 26.5333 27.2198 27.8091C25.9441 29.0848 24.2144 29.8023 22.4102 29.8042ZM30.9161 16.1947C30.5797 16.1947 30.2508 16.0949 29.971 15.908C29.6912 15.7211 29.4732 15.4554 29.3444 15.1445C29.2157 14.8337 29.182 14.4916 29.2476 14.1616C29.3133 13.8316 29.4753 13.5285 29.7132 13.2906C29.9511 13.0527 30.2543 12.8907 30.5842 12.825C30.9142 12.7594 31.2563 12.7931 31.5671 12.9218C31.878 13.0506 32.1437 13.2686 32.3306 13.5484C32.5175 13.8282 32.6173 14.1571 32.6173 14.4935C32.6173 14.9447 32.4381 15.3774 32.1191 15.6965C31.8 16.0155 31.3673 16.1947 30.9161 16.1947ZM26.9467 22.9994C26.9467 23.8967 26.6806 24.7738 26.1822 25.5198C25.6837 26.2658 24.9752 26.8473 24.1463 27.1906C23.3173 27.534 22.4052 27.6238 21.5252 27.4488C20.6452 27.2737 19.8369 26.8417 19.2024 26.2072C18.568 25.5728 18.1359 24.7645 17.9609 23.8845C17.7859 23.0045 17.8757 22.0923 18.219 21.2634C18.5624 20.4345 19.1439 19.726 19.8899 19.2275C20.6359 18.729 21.513 18.463 22.4102 18.463C23.6134 18.463 24.7672 18.9409 25.618 19.7917C26.4688 20.6424 26.9467 21.7963 26.9467 22.9994Z" fill="#BC995D"/>
</svg>
